<svg xmlns="http://www.w3.org/2000/svg" viewBox="0 0 64 64" width="64" height="64">
  <defs>
    <radialGradient id="bg_glow_00b4d8" cx="50%" cy="50%" r="50%">
      <stop offset="0%" stop-color="#00b4d8" stop-opacity="0.4" />
      <stop offset="85%" stop-color="#101533" stop-opacity="0.95" />
      <stop offset="100%" stop-color="#040608" stop-opacity="1.0" />
    </radialGradient>
    <linearGradient id="border_grad_00b4d8" x1="0%" y1="0%" x2="100%" y2="100%">
      <stop offset="0%" stop-color="#c77dff" />
      <stop offset="60%" stop-color="#00b4d8" />
      <stop offset="100%" stop-color="#111822" />
    </linearGradient>
  </defs>
  <rect width="64" height="64" rx="8" fill="url(#bg_glow_00b4d8)" />
  <rect x="2" y="2" width="60" height="60" rx="6" fill="none" stroke="url(#border_grad_00b4d8)" stroke-width="2" />
  <path d="M 4,10 L 4,4 L 10,4" stroke="#c77dff" stroke-width="1.5" fill="none" opacity="0.8" />
  <path d="M 60,10 L 60,4 L 54,4" stroke="#c77dff" stroke-width="1.5" fill="none" opacity="0.8" />
  <path d="M 4,54 L 4,60 L 10,60" stroke="#c77dff" stroke-width="1.5" fill="none" opacity="0.8" />
  <path d="M 60,54 L 60,60 L 54,60" stroke="#c77dff" stroke-width="1.5" fill="none" opacity="0.8" />
  <g transform="translate(32,32)">
    
      <polygon points="0,-16 9,2 0,-1 -9,2" fill="#00f5d4" stroke="#c77dff" stroke-width="1.5" />
      <polygon points="0,-8 5,6 0,4 -5,6" fill="#fff" />
      <line x1="-7" y1="5" x2="-14" y2="18" stroke="#7b2cbf" stroke-width="2" stroke-linecap="round" />
      <line x1="7" y1="5" x2="14" y2="18" stroke="#7b2cbf" stroke-width="2" stroke-linecap="round" />
      <line x1="0" y1="8" x2="0" y2="20" stroke="#00f5d4" stroke-width="2.5" stroke-linecap="round" />
    
  </g>
</svg>