<svg xmlns="http://www.w3.org/2000/svg" viewBox="0 0 64 64" width="64" height="64">
  <defs>
    <radialGradient id="bg_glow_10b981" cx="50%" cy="50%" r="50%">
      <stop offset="0%" stop-color="#10b981" stop-opacity="0.4" />
      <stop offset="85%" stop-color="#05221d" stop-opacity="0.95" />
      <stop offset="100%" stop-color="#040608" stop-opacity="1.0" />
    </radialGradient>
    <linearGradient id="border_grad_10b981" x1="0%" y1="0%" x2="100%" y2="100%">
      <stop offset="0%" stop-color="#facc15" />
      <stop offset="60%" stop-color="#10b981" />
      <stop offset="100%" stop-color="#111822" />
    </linearGradient>
  </defs>
  <rect width="64" height="64" rx="8" fill="url(#bg_glow_10b981)" />
  <rect x="2" y="2" width="60" height="60" rx="6" fill="none" stroke="url(#border_grad_10b981)" stroke-width="2" />
  <path d="M 4,10 L 4,4 L 10,4" stroke="#facc15" stroke-width="1.5" fill="none" opacity="0.8" />
  <path d="M 60,10 L 60,4 L 54,4" stroke="#facc15" stroke-width="1.5" fill="none" opacity="0.8" />
  <path d="M 4,54 L 4,60 L 10,60" stroke="#facc15" stroke-width="1.5" fill="none" opacity="0.8" />
  <path d="M 60,54 L 60,60 L 54,60" stroke="#facc15" stroke-width="1.5" fill="none" opacity="0.8" />
  <g transform="translate(32,32)">
    
      <circle cx="0" cy="0" r="10" fill="none" stroke="#10b981" stroke-width="2.5" />
      <circle cx="0" cy="0" r="4" fill="#facc15" />
      <line x1="0" y1="-15" x2="0" y2="-11" stroke="#34d399" stroke-width="2" />
      <line x1="0" y1="15" x2="0" y2="11" stroke="#34d399" stroke-width="2" />
      <line x1="-15" y1="0" x2="-11" y2="0" stroke="#34d399" stroke-width="2" />
      <line x1="15" y1="0" x2="11" y2="0" stroke="#34d399" stroke-width="2" />
    
  </g>
</svg>