<svg xmlns="http://www.w3.org/2000/svg" viewBox="0 0 64 64" width="64" height="64">
  <defs>
    <radialGradient id="bg_glow_f4a261" cx="50%" cy="50%" r="50%">
      <stop offset="0%" stop-color="#f4a261" stop-opacity="0.4" />
      <stop offset="85%" stop-color="#1a1506" stop-opacity="0.95" />
      <stop offset="100%" stop-color="#040608" stop-opacity="1.0" />
    </radialGradient>
    <linearGradient id="border_grad_f4a261" x1="0%" y1="0%" x2="100%" y2="100%">
      <stop offset="0%" stop-color="#ffe6a7" />
      <stop offset="60%" stop-color="#f4a261" />
      <stop offset="100%" stop-color="#111822" />
    </linearGradient>
  </defs>
  <rect width="64" height="64" rx="8" fill="url(#bg_glow_f4a261)" />
  <rect x="2" y="2" width="60" height="60" rx="6" fill="none" stroke="url(#border_grad_f4a261)" stroke-width="2" />
  <path d="M 4,10 L 4,4 L 10,4" stroke="#ffe6a7" stroke-width="1.5" fill="none" opacity="0.8" />
  <path d="M 60,10 L 60,4 L 54,4" stroke="#ffe6a7" stroke-width="1.5" fill="none" opacity="0.8" />
  <path d="M 4,54 L 4,60 L 10,60" stroke="#ffe6a7" stroke-width="1.5" fill="none" opacity="0.8" />
  <path d="M 60,54 L 60,60 L 54,60" stroke="#ffe6a7" stroke-width="1.5" fill="none" opacity="0.8" />
  <g transform="translate(32,32)">
    
      <polygon points="0,-16 15,-7 15,10 0,19 -15,10 -15,-7" fill="#422906" stroke="#ffd166" stroke-width="2" />
      <polygon points="0,-10 9,-4 9,6 0,12 -9,6 -9,-4" fill="#a4711b" stroke="#fff" stroke-width="1.5" />
    
  </g>
</svg>